<svg xmlns="http://www.w3.org/2000/svg" viewBox="0 0 320 100" width="320" height="100">
  <!-- Background transparent -->

  <!-- Left branch (purple-mauve) -->
  <path d="M 30 75 C 10 55, 15 30, 35 20 C 25 40, 30 60, 50 70 Z" fill="#8b7ba8" opacity="0.85"/>
  <path d="M 25 80 C 5 65, 8 40, 25 28 C 18 48, 22 65, 40 75 Z" fill="#a08db8" opacity="0.7"/>

  <!-- Right branch (teal) -->
  <path d="M 70 75 C 90 55, 85 30, 65 20 C 75 40, 70 60, 50 70 Z" fill="#2d6a7a" opacity="0.85"/>
  <path d="M 75 80 C 95 65, 92 40, 75 28 C 82 48, 78 65, 60 75 Z" fill="#3a7d8c" opacity="0.7"/>

  <!-- Center figure (dark teal) -->
  <ellipse cx="50" cy="55" rx="8" ry="18" fill="#1a4a5c" transform="rotate(-5,50,55)"/>
  <path d="M 42 62 C 35 72, 32 80, 38 82 C 44 84, 48 74, 50 68 Z" fill="#1a4a5c"/>
  <path d="M 58 62 C 65 72, 68 80, 62 82 C 56 84, 52 74, 50 68 Z" fill="#1a4a5c"/>

  <!-- Red dot (head) -->
  <circle cx="50" cy="34" r="5" fill="#e63946"/>

  <!-- Text ANAFIM -->
  <text x="100" y="58" font-family="Arial, sans-serif" font-weight="900" font-size="32" fill="#1a3a5c" letter-spacing="2">ANAFIM</text>

  <!-- Subtitle -->
  <text x="100" y="76" font-family="Arial, sans-serif" font-size="13" fill="#4a6a8a" letter-spacing="1">Plant Your Success</text>
</svg>
